<svg width="20" height="21" viewBox="0 0 20 21" fill="none" xmlns="http://www.w3.org/2000/svg">
<path fill-rule="evenodd" clip-rule="evenodd" d="M10 1.92857C8.13608 1.92857 6.62504 3.4396 6.62504 5.30356C6.62504 7.16751 8.13608 8.67855 10 8.67855C11.864 8.67855 13.375 7.16751 13.375 5.30356C13.375 3.4396 11.864 1.92857 10 1.92857ZM5.19647 5.30356C5.19647 2.65063 7.3471 0.5 10 0.5C12.653 0.5 14.8036 2.65063 14.8036 5.30356C14.8036 7.95649 12.653 10.1071 10 10.1071C7.3471 10.1071 5.19647 7.95649 5.19647 5.30356Z" fill="#B3B3B3"/>
<path fill-rule="evenodd" clip-rule="evenodd" d="M0.917847 15.3251C0.917847 13.3527 2.51683 11.7537 4.48928 11.7537H15.5108C17.4832 11.7537 19.0822 13.3527 19.0822 15.3251V20.5H17.6536V15.3251C17.6536 14.1417 16.6942 13.1823 15.5108 13.1823H4.48928C3.30581 13.1823 2.34642 14.1417 2.34642 15.3251V20.5H0.917847V15.3251Z" fill="#B3B3B3"/>
</svg>
